<mxfile host="app.diagrams.net" modified="2022-05-02T12:41:52.446Z" agent="5.0 (Windows NT 10.0; Win64; x64) AppleWebKit/537.36 (KHTML, like Gecko) Chrome/100.0.4896.127 Safari/537.36" etag="PvOuS7RXKbgSmV5AETJp" version="17.5.0" type="github">
  <diagram name="Page-1" id="c9db0220-8083-56f3-ca83-edcdcd058819">
    <mxGraphModel dx="1422" dy="800" grid="1" gridSize="10" guides="1" tooltips="1" connect="1" arrows="1" fold="1" page="1" pageScale="1.5" pageWidth="826" pageHeight="1169" background="none" math="0" shadow="0">
      <root>
        <mxCell id="0" style=";html=1;" />
        <mxCell id="1" style=";html=1;" parent="0" />
        <mxCell id="bzQMWn9ssicwVLEgMjG6-1" value="" style="html=1;shadow=0;dashed=0;shape=mxgraph.bootstrap.rect;fillColor=#351C39;strokeColor=none;whiteSpace=wrap;rounded=0;fontSize=12;fontColor=#000000;align=center;container=0;" vertex="1" parent="1">
          <mxGeometry x="40" y="70" width="1160" height="40" as="geometry" />
        </mxCell>
        <mxCell id="bzQMWn9ssicwVLEgMjG6-2" value="&lt;h1&gt;&lt;b&gt;&lt;i&gt;&lt;font face=&quot;Comic Sans MS&quot;&gt;&lt;font&gt;&lt;span style=&quot;font-size: 40px&quot;&gt;EwanEdwardDunn&lt;/span&gt;&lt;/font&gt;&lt;font style=&quot;font-size: 40px&quot;&gt;.com&lt;/font&gt;&lt;/font&gt;&lt;/i&gt;&lt;/b&gt;&lt;/h1&gt;" style="rounded=0;whiteSpace=wrap;html=1;align=left;fillColor=#351C39;strokeColor=#7D007D;gradientColor=#850085;gradientDirection=east;glass=0;shadow=0;fontColor=#64FF96;" vertex="1" parent="1">
          <mxGeometry x="40" y="10" width="1160" height="60" as="geometry" />
        </mxCell>
        <mxCell id="bzQMWn9ssicwVLEgMjG6-4" value="" style="rounded=0;whiteSpace=wrap;html=1;shadow=0;glass=0;fontFamily=Comic Sans MS;fontSize=40;fillColor=#351C39;gradientColor=#850085;gradientDirection=east;" vertex="1" parent="1">
          <mxGeometry x="40" y="1040" width="1160" height="160" as="geometry" />
        </mxCell>
        <mxCell id="bzQMWn9ssicwVLEgMjG6-12" value="Home" style="html=1;shadow=0;dashed=0;fillColor=none;strokeColor=none;shape=mxgraph.bootstrap.rect;fontColor=#64FF96;fontSize=15;whiteSpace=wrap;fontStyle=1" vertex="1" parent="1">
          <mxGeometry x="40" y="70" width="120" height="40" as="geometry" />
        </mxCell>
        <mxCell id="bzQMWn9ssicwVLEgMjG6-13" value="Skills" style="html=1;shadow=0;dashed=0;fillColor=none;strokeColor=none;shape=mxgraph.bootstrap.rect;fontColor=#009C00;whiteSpace=wrap;fillOpacity=100;fontStyle=1;fontSize=15;" vertex="1" parent="1">
          <mxGeometry x="160" y="70" width="120" height="40" as="geometry" />
        </mxCell>
        <mxCell id="bzQMWn9ssicwVLEgMjG6-14" value="About me" style="html=1;shadow=0;dashed=0;fillColor=none;strokeColor=none;shape=mxgraph.bootstrap.rect;fontColor=#64FF96;whiteSpace=wrap;fontStyle=1;fontSize=15;" vertex="1" parent="1">
          <mxGeometry x="280" y="70" width="120" height="40" as="geometry" />
        </mxCell>
        <mxCell id="bzQMWn9ssicwVLEgMjG6-15" value="Settings" style="html=1;shadow=0;dashed=0;fillColor=none;strokeColor=none;shape=mxgraph.bootstrap.rect;fontColor=#00FF00;whiteSpace=wrap;fontStyle=1;fontSize=15;" vertex="1" parent="1">
          <mxGeometry x="830.01" y="70" width="120" height="40" as="geometry" />
        </mxCell>
        <mxCell id="bzQMWn9ssicwVLEgMjG6-16" value="Profile" style="html=1;shadow=0;dashed=0;fillColor=none;strokeColor=none;shape=mxgraph.bootstrap.rect;fontColor=#64FF96;whiteSpace=wrap;fontStyle=1;fontSize=15;" vertex="1" parent="1">
          <mxGeometry x="950" y="70" width="120" height="40" as="geometry" />
        </mxCell>
        <mxCell id="bzQMWn9ssicwVLEgMjG6-17" value="&lt;font style=&quot;font-size: 15px;&quot;&gt;Projects&lt;/font&gt;" style="html=1;shadow=0;dashed=0;shape=mxgraph.bootstrap.rect;fillColor=none;strokeColor=none;fontColor=#00FF00;spacingRight=30;whiteSpace=wrap;align=center;fontStyle=1;fontSize=15;" vertex="1" parent="1">
          <mxGeometry x="400" y="70" width="190" height="40" as="geometry" />
        </mxCell>
        <mxCell id="bzQMWn9ssicwVLEgMjG6-18" value="Settings" style="html=1;shadow=0;dashed=0;fillColor=none;strokeColor=none;shape=mxgraph.bootstrap.rect;fontColor=#64FF96;whiteSpace=wrap;fontStyle=1;fontSize=15;" vertex="1" parent="1">
          <mxGeometry x="830.01" y="70" width="120" height="40" as="geometry" />
        </mxCell>
        <mxCell id="bzQMWn9ssicwVLEgMjG6-19" value="Log Out" style="html=1;shadow=0;dashed=0;fillColor=none;strokeColor=none;shape=mxgraph.bootstrap.rect;fontColor=#64FF96;whiteSpace=wrap;fontStyle=1;fontSize=15;" vertex="1" parent="1">
          <mxGeometry x="1070" y="70" width="129.99" height="40" as="geometry" />
        </mxCell>
        <mxCell id="bzQMWn9ssicwVLEgMjG6-20" value="&lt;font style=&quot;font-size: 15px;&quot;&gt;Projects&lt;/font&gt;" style="html=1;shadow=0;dashed=0;shape=mxgraph.bootstrap.rect;fillColor=none;strokeColor=none;fontColor=#64FF96;spacingRight=30;whiteSpace=wrap;align=center;fontStyle=1;fontSize=15;" vertex="1" parent="1">
          <mxGeometry x="400" y="70" width="190" height="40" as="geometry" />
        </mxCell>
      </root>
    </mxGraphModel>
  </diagram>
</mxfile>
